<svg xmlns="http://www.w3.org/2000/svg" viewBox="0 0 1096.5 342.66"><defs><style>.cls-1,.cls-5,.cls-8{fill:none;stroke-miterlimit:10;}.cls-1{stroke:#009245;}.cls-1,.cls-5{stroke-width:4px;}.cls-2{font-size:34px;font-family:Verdana;}.cls-3{letter-spacing:-0.06em;}.cls-4{letter-spacing:-0.02em;}.cls-5{stroke:#333;}.cls-6{letter-spacing:-0.08em;}.cls-7{letter-spacing:-0.04em;}.cls-8{stroke:#1a1a1a;stroke-width:3px;}</style></defs><title>Asset 7</title><g id="Layer_2" data-name="Layer 2"><g id="Layer_1-2" data-name="Layer 1"><rect class="cls-1" x="2" y="117.5" width="117" height="56" rx="8.86"/><text class="cls-2" transform="translate(14.1 157.85)">USER</text><rect class="cls-1" x="429.5" y="118" width="165" height="56" rx="8.86"/><text class="cls-2" transform="translate(446.04 158.35)">UPBE<tspan class="cls-3" x="90.2" y="0">A</tspan><tspan x="111.45" y="0">T</tspan></text><rect class="cls-1" x="667.5" y="118" width="165" height="56" rx="8.86"/><text class="cls-2" transform="translate(677.54 158.35)">SP<tspan class="cls-4" x="43.75" y="0">O</tspan><tspan x="69.68" y="0">TIFY</tspan></text><path class="cls-5" d="M179.5,50.81c-8.79-2.67-24,0-24,0v86.37a43.46,43.46,0,0,1-25,0"/><path class="cls-5" d="M179.5,239.84c-8.79,2.61-24,0-24,0V155.78a44.49,44.49,0,0,0-25,0"/><rect class="cls-1" x="191.25" y="150.6" width="165.25" height="135.7" rx="8.86"/><rect class="cls-1" x="191.5" y="2" width="165" height="95" rx="8.86"/><text class="cls-2" transform="translate(227.6 42.35)">USER<tspan x="-23.01" y="40.8">FI</tspan><tspan class="cls-6" x="10.84" y="40.8">L</tspan><tspan x="26.94" y="40.8">TERS</tspan></text><path class="cls-5" d="M368.5,50.81c8.79-2.67,24,0,24,0v86.37a43.46,43.46,0,0,0,25,0"/><path class="cls-5" d="M368.5,239.84c8.79,2.61,24,0,24,0V155.78a44.49,44.49,0,0,1,25,0"/><line class="cls-5" x1="603.5" y1="145" x2="657.5" y2="145"/><rect class="cls-1" x="905.5" y="118" width="189" height="56" rx="8.86"/><text class="cls-2" transform="translate(920.39 158.35)">PL<tspan class="cls-7" x="39.43" y="0">A</tspan><tspan x="61.34" y="0">YLIST</tspan></text><line class="cls-5" x1="842.5" y1="145" x2="896.5" y2="145"/><text class="cls-2" transform="translate(217.2 332.35)">IMAGE</text><polygon class="cls-8" points="206.5 264 255.5 191 288.5 234 305.5 215 341.5 264 206.5 264"/><circle class="cls-8" cx="317" cy="190.5" r="14.5"/></g></g></svg>