<?xml version="1.0" encoding="utf-8"?>
<!-- Generator: Adobe Illustrator 23.0.2, SVG Export Plug-In . SVG Version: 6.00 Build 0)  -->
<svg version="1.1" id="Layer_1" xmlns="http://www.w3.org/2000/svg" xmlns:xlink="http://www.w3.org/1999/xlink" x="0px" y="0px"
	 viewBox="0 0 573 421" style="enable-background:new 0 0 573 421;" xml:space="preserve">
<style type="text/css">
	.st0{fill:#333333;}
	.st1{fill:#39B54A;}
	.st2{fill:#61C46E;}
	.st3{fill:#009245;}
	.st4{fill:#39DF7B;}
	.st5{fill:#61E695;}
	.st6{fill:#33A86A;}
	.st7{fill:#65EA7F;}
	.st8{fill:#84EE98;}
	.st9{fill:#4D4D4D;}
	.st10{clip-path:url(#SVGID_2_);fill:#4D4D4D;}
	.st11{clip-path:url(#SVGID_2_);}
	.st12{font-family:'Arial-BoldMT';}
	.st13{font-size:56px;}
	.st14{letter-spacing:-4;}
	.st15{fill:#FFFFFF;}
</style>
<title>Asset 2</title>
<g>
	<path class="st0" d="M573,364c0,2.2-1.8,4-4,4H427.4c-1.2,1.7-2.4,3.4-3.6,5H569c2.2,0,4-1.8,4-4V364 M0,306.4L0,306.4V369
		c0,2.2,1.8,4,4,4h204.7c-1.2-1.6-2.4-3.3-3.6-5H4c-2.2,0-4-1.8-4-4V306.4"/>
	<path class="st0" d="M0,215.1L0,215.1v62.4c0,2.3,1.8,4.1,4.1,4.1H184c0-0.5,0-0.9,0-1.4v-3.6H4.1c-2.3,0-4.1-1.8-4.1-4.1V215.1"/>
	<path class="st1" d="M328,58.5c-0.9,12.5-6.4,23.7-14.7,32c-9.2,9.2-21.8,14.8-35.8,14.8h0H190V206h17.6c3.6-5,7.7-9.6,12-14
		c22-22,52.3-35.6,85.8-35.6h21.7c1.1,0,2.1,0,3.1,0V76.1h3l0,0h-3l0-0.1C330.3,70.1,329.5,64.2,328,58.5"/>
	<path class="st1" d="M184,281.6L184,281.6C184,281.6,184,281.6,184,281.6L184,281.6 M190,105.4h-6V206h6V105.4 M327,39.7l0.1,0.4
		c0.7,3.4,1.1,7,1.1,10.5v0.1v0v4.1c0,1.3,0,2.5-0.1,3.8c1.5,5.7,2.2,11.6,2.2,17.5l0,0.1h3h3h-3h-3v80.4c1.1,0,2.1,0.1,3.2,0.1l0,0
		c1,0,1.9,0.1,2.8,0.2V76.1V76C336.3,63.2,333,50.7,327,39.7 M317,25.5c3.7,4.2,7,8.8,9.8,13.8l0.1,0.1
		C324.1,34.4,320.8,29.7,317,25.5 M260.1,0L260.1,0L260.1,0L260.1,0c-0.3,0-0.6,0-0.9,0L260.1,0c19.4,0,37.8,7.4,51.6,20.2
		C297.7,7.2,279.3,0,260.1,0L260.1,0"/>
	<path class="st2" d="M184,276.6L184,276.6l0,3.6c0,0.5,0,0.9,0,1.4h0v-3.7C184,277.5,184,277,184,276.6"/>
	<path class="st3" d="M336.3,162.9v117.4v0c0,5.9-0.7,11.6-1.9,17.2h108.2v-19.5C442.5,217.5,396.1,167.6,336.3,162.9"/>
	<path class="st4" d="M327.1,162.5h-21.7c-31.9,0-60.7,12.9-81.6,33.8c-3.1,3.1-6,6.3-8.7,9.7h32.2c2.3,0,4.1,1.8,4.1,4.1v62.4l0,0
		v5c0,2.3-1.8,4.1-4.1,4.1H190c0,1.1,0.1,2.2,0.2,3.4l0,0c0.3,4.2,1,8.4,2,12.4h136c1.4-5.5,2.1-11.2,2.1-17.2v0V162.5
		C329.2,162.5,328.2,162.5,327.1,162.5"/>
	<path class="st5" d="M251.4,272.5c0,2.3-1.8,4.1-4.1,4.1H190c0,0.4,0,0.9,0,1.3v3.7c0,0,0,0,0,0h57.3c2.3,0,4.1-1.8,4.1-4.1V272.5"
		/>
	<path class="st4" d="M190,281.6L190,281.6l0,15.8h2.1c-1-4-1.7-8.1-2-12.4l0,0C190.1,283.8,190,282.7,190,281.6 M330.3,162.5v117.7
		v0c0,5.9-0.7,11.7-2.1,17.2h6.2c1.3-5.5,1.9-11.3,1.9-17.2v0V162.9c-1-0.1-2.1-0.2-3.2-0.2l0,0
		C332.2,162.6,331.2,162.6,330.3,162.5"/>
	<path class="st5" d="M190,281.6L190,281.6L190,281.6C190,281.6,190,281.6,190,281.6"/>
	<path class="st3" d="M416.2,373H216.4c2.4,2.8,4.8,5.6,7.4,8.2c20.9,20.9,49.7,33.8,81.6,33.8h21.7c31.9,0,60.7-12.9,81.6-33.8
		C411.3,378.6,413.8,375.8,416.2,373"/>
	<path class="st6" d="M420.1,368H212.5c1.3,1.7,2.6,3.4,3.9,5h199.8C417.5,371.4,418.8,369.7,420.1,368"/>
	<path class="st1" d="M336.3,156.8v6c59.8,4.7,106.3,54.7,106.3,115v19.5h6v-19.5h-3l3,0C448.5,214.2,399.4,161.6,336.3,156.8"/>
	<path class="st7" d="M327.1,156.5h-21.7c-33.5,0-63.9,13.6-85.8,35.6c-4.3,4.3-8.4,9-12,14h7.6c2.7-3.4,5.6-6.6,8.7-9.7
		c20.9-20.9,49.7-33.8,81.6-33.8h21.7c1.1,0,2.1,0,3.1,0v-6C329.2,156.5,328.2,156.5,327.1,156.5"/>
	<path class="st7" d="M330.3,156.5v6c0.9,0,1.9,0.1,2.8,0.1l0,0c1.1,0.1,2.1,0.1,3.2,0.2v-6c-0.9-0.1-1.9-0.1-2.8-0.2l0,0
		C332.4,156.6,331.3,156.6,330.3,156.5"/>
	<path class="st1" d="M184,281.7v15.7h2c-0.9-3.9-1.5-7.9-1.8-12C184.1,284.2,184,282.9,184,281.7"/>
	<path class="st8" d="M190,276.6L190,276.6l0,3.6c0,0.4,0,0.9,0,1.4v-3.7C190,277.5,190,277,190,276.6"/>
	<path class="st7" d="M190,281.6h-6v0.1c0,1.3,0.1,2.5,0.2,3.8c0.3,4.1,0.9,8.1,1.8,12h4V281.6"/>
	<path class="st8" d="M190,276.6h-6c0,0.4,0,0.9,0,1.3v3.7h6v0c0-0.5,0-0.9,0-1.4V276.6"/>
	<path class="st1" d="M423.8,373h-7.7c-2.4,2.8-4.8,5.6-7.4,8.2C387.8,402.1,359,415,327.1,415h-21.7c-31.9,0-60.7-12.9-81.6-33.8
		c-2.6-2.6-5.1-5.3-7.4-8.2h-7.7c3.3,4.4,7,8.5,10.9,12.4c22,22,52.3,35.6,85.8,35.6h0h21.7h0c33.5,0,63.9-13.6,85.8-35.6
		C416.8,381.5,420.5,377.4,423.8,373"/>
	<path class="st2" d="M212.5,368h-7.4c1.2,1.7,2.4,3.4,3.6,5h7.7C215,371.4,213.7,369.7,212.5,368 M427.4,368h-7.4
		c-1.3,1.7-2.6,3.4-3.9,5h7.7C425.1,371.4,426.3,369.7,427.4,368"/>
	<path class="st3" d="M230.4,6h-54.9C163.2,6,152,11,144,19.1c-8.1,8.1-13.1,19.2-13.1,31.5v4.1c0,12.3,5,23.5,13.1,31.6
		c8.1,8.1,19.2,13.1,31.6,13.1h8.5V76.1c0-21,8.5-40.1,22.3-53.8C213.2,15.4,221.3,9.9,230.4,6"/>
	<path class="st4" d="M260.1,6h-0.8c-19.1,0.2-36.3,8-48.8,20.5C197.8,39.2,190,56.8,190,76.1v23.2h87.5h0c12.3,0,23.5-5,31.6-13.1
		c8.1-8.1,13.1-19.2,13.1-31.6v-4.1v-0.1c0-3-0.3-5.9-0.9-8.8c-2.5-4.5-5.6-8.7-9-12.5c-0.8-0.9-1.7-1.9-2.6-2.8l0,0
		c-0.7-0.7-1.3-1.3-2-1.9C294.9,12.8,278,6,260.1,6"/>
	<path class="st4" d="M307.7,24.6c0.7,0.6,1.4,1.3,2,1.9l0,0c0.9,0.9,1.8,1.8,2.6,2.8C310.9,27.7,309.3,26.1,307.7,24.6 M259.3,6
		h-28.9c-9.1,3.9-17.3,9.4-24.2,16.3C192.5,36.1,184,55.1,184,76.1v23.2h6V76.1c0-19.4,7.8-36.9,20.5-49.6
		C223.1,14,240.3,6.2,259.3,6"/>
	<path class="st1" d="M326.8,39.4c0.1,0.1,0.1,0.2,0.2,0.3l0,0L326.8,39.4 M311.8,20.2c0.7,0.7,1.5,1.4,2.2,2.1l0,0c1,1,2,2.1,3,3.2
		C315.3,23.6,313.6,21.9,311.8,20.2 M259.3,0h-83.8h0c-14,0-26.6,5.7-35.8,14.8c-9.1,9.2-14.8,21.8-14.8,35.8v4.1
		c0,14,5.7,26.6,14.8,35.8c9.1,9.2,21.8,14.8,35.8,14.8c0,0,0,0,0,0h8.5v-6h-8.5c-12.3,0-23.5-5-31.6-13.1
		c-8.1-8.1-13.1-19.2-13.1-31.6v-4.1c0-12.3,5-23.5,13.1-31.5C152,11,163.2,6,175.5,6h54.9C239.3,2.2,249.1,0.1,259.3,0"/>
	<path class="st7" d="M312.3,29.3c3.4,3.8,6.4,7.9,9,12.5c0.6,2.9,0.9,5.8,0.9,8.8v0.1v4.1c0,12.3-5,23.5-13.1,31.6
		c-8.1,8.1-19.2,13.1-31.6,13.1h0H190v6h87.5h0c14,0,26.6-5.7,35.8-14.8c8.3-8.3,13.8-19.6,14.7-32c-0.7-2.7-1.5-5.3-2.5-7.9l-0.3,0
		h-3h3l0.3,0C322.4,42.8,318,35.6,312.3,29.3 M260.1,6c-0.2,0-0.5,0-0.7,0L260.1,6c18,0,34.9,6.8,47.6,18.6
		C294.8,12.7,277.8,6,260.1,6L260.1,6"/>
	<path class="st7" d="M190,99.4h-6v6h6V99.4 M260.1,0h-0.8c-10.2,0.1-20,2.2-28.8,6h28.9c0.2,0,0.5,0,0.7,0l0.1,0
		c17.7,0,34.6,6.7,47.6,18.6c1.6,1.5,3.2,3.1,4.6,4.7c5.7,6.3,10.1,13.5,13.1,21.3l2.7,0l-2.7,0c1,2.6,1.9,5.2,2.5,7.9
		c0.1-1.2,0.1-2.5,0.1-3.8v-4.1v0v-0.1c0-3.5-0.4-7-1.1-10.5l-0.1-0.4c-0.1-0.1-0.1-0.2-0.2-0.3l-0.1-0.1c-2.8-5-6.1-9.6-9.8-13.8
		c-1-1.1-2-2.1-3-3.2l0,0c-0.7-0.7-1.5-1.4-2.2-2.1C297.9,7.4,279.6,0,260.1,0"/>
	<path class="st9" d="M569,297.4H448.5h-6H334.3h-6.2h-136H190h-4h-2H4c-2.2,0-4,1.8-4,4v5V364c0,2.2,1.8,4,4,4h201.1h7.4h207.6h7.4
		H569c2.2,0,4-1.8,4-4l0,0v-62.6C573,299.2,571.2,297.4,569,297.4"/>
	<path class="st9" d="M13.5,262v-40.8h220.8V262H13.5 M247.4,206h-32.2h-7.6H190h-6H4.1c-2.3,0-4.1,1.8-4.1,4.1v5v57.4
		c0,2.3,1.8,4.1,4.1,4.1H184h0h6h0h57.3c2.3,0,4.1-1.8,4.1-4.1l0,0v-62.4C251.4,207.8,249.6,206,247.4,206"/>
	<g>
		<defs>
			<polyline id="SVGID_1_" points="234.4,221.2 13.5,221.2 13.5,262 234.4,262 234.4,221.2 			"/>
		</defs>
		<clipPath id="SVGID_2_">
			<use xlink:href="#SVGID_1_"  style="overflow:visible;"/>
		</clipPath>
		<rect x="13.5" y="221.2" class="st10" width="220.8" height="40.8"/>
		<g class="st11">
			<text transform="matrix(1 0 0 1 9.4414 261.3008)"><tspan x="0" y="0" class="st0 st12 st13">UPBE</tspan><tspan x="155.6" y="0" class="st0 st12 st13 st14">A</tspan><tspan x="191.9" y="0" class="st0 st12 st13">T</tspan></text>
		</g>
	</g>
	<text transform="matrix(1 0 0 1 12.981 261.3008)"><tspan x="0" y="0" class="st15 st12 st13">UPBE</tspan><tspan x="155.6" y="0" class="st15 st12 st13 st14">A</tspan><tspan x="191.9" y="0" class="st15 st12 st13">T</tspan></text>
</g>
</svg>
