<svg xmlns="http://www.w3.org/2000/svg" viewBox="0 0 323.65 421"><defs><style>.cls-1{isolation:isolate;}.cls-2{fill:#39b54a;}.cls-2,.cls-3{stroke:#39b54a;stroke-miterlimit:10;stroke-width:6px;mix-blend-mode:screen;}.cls-3{fill:#009245;}</style></defs><title>Asset 1</title><g class="cls-1"><g id="Layer_2" data-name="Layer 2"><g id="Layer_1-2" data-name="Layer 1"><path class="cls-2" d="M208.39,76.13v204.1a73.12,73.12,0,0,1-146.07,5c-.12-1.69-.21-3.35-.21-5V76.13A73.14,73.14,0,0,1,187,24.42a72.89,72.89,0,0,1,21.42,51.71Z"/><path class="cls-3" d="M320.65,277.89v21.7A118.43,118.43,0,0,1,202.24,418h-21.7A118.44,118.44,0,0,1,62.12,299.59v-21.7A118.41,118.41,0,0,1,180.54,159.48h21.7c2.07,0,4.11.06,6.15.17A118.42,118.42,0,0,1,320.65,277.89Z"/><path class="cls-3" d="M200.29,50.62v4.11a47.62,47.62,0,0,1-47.63,47.62h-102A47.62,47.62,0,0,1,3,54.73V50.62A47.62,47.62,0,0,1,50.62,3h84.64a73.25,73.25,0,0,1,64,37.71A47.6,47.6,0,0,1,200.29,50.62Z"/></g></g></g></svg>